<svg xmlns="http://www.w3.org/2000/svg" width="1280" height="720" viewBox="0 0 1280 720">
  <defs>
    <linearGradient id="bg" x1="0" x2="1" y1="0" y2="1">
      <stop offset="0" stop-color="#07111f"/>
      <stop offset="0.56" stop-color="#101827"/>
      <stop offset="1" stop-color="#172033"/>
    </linearGradient>
    <filter id="soft" x="-20%" y="-20%" width="140%" height="140%">
      <feGaussianBlur stdDeviation="22"/>
    </filter>
  </defs>
  <rect width="1280" height="720" fill="url(#bg)"/>
  <circle cx="1070" cy="110" r="260" fill="#2563eb" opacity="0.17" filter="url(#soft)"/>
  <circle cx="160" cy="650" r="220" fill="#2563eb" opacity="0.10" filter="url(#soft)"/>
  <path d="M0 84H1280M0 180H1280M0 276H1280M0 372H1280M0 468H1280M0 564H1280M160 0V720M320 0V720M480 0V720M640 0V720M800 0V720M960 0V720M1120 0V720" stroke="#253244" stroke-width="1" opacity="0.35"/>
  
  <text x="72" y="82" font-family="Inter, ui-sans-serif, system-ui, -apple-system, BlinkMacSystemFont, Segoe UI, sans-serif" font-size="25" font-weight="700" fill="#bfdbfe">ligolo-ng-relay network path</text>
  <rect x="72" y="134" width="300" height="370" rx="18" fill="#0b1220" stroke="#2563eb" opacity="1"/>
  <text x="126" y="198" font-family="Inter, ui-sans-serif, system-ui, -apple-system, BlinkMacSystemFont, Segoe UI, sans-serif" font-size="28" font-weight="700" fill="#eff6ff">Operator</text>
  <text x="118" y="268" font-family="JetBrains Mono, SFMono-Regular, Consolas, monospace" font-size="20" fill="#bfdbfe">tun0 10.42.0.1</text>
  <rect x="490" y="134" width="300" height="370" rx="18" fill="#eff6ff" stroke="#bfdbfe" opacity="1"/>
  <text x="558" y="198" font-family="Inter, ui-sans-serif, system-ui, -apple-system, BlinkMacSystemFont, Segoe UI, sans-serif" font-size="28" font-weight="700" fill="#1e3a8a">Relay</text>
  <text x="540" y="268" font-family="JetBrains Mono, SFMono-Regular, Consolas, monospace" font-size="20" fill="#1d4ed8">session: scoped</text>
  <rect x="908" y="134" width="300" height="370" rx="18" fill="#0b1220" stroke="#2563eb" opacity="1"/>
  <text x="966" y="198" font-family="Inter, ui-sans-serif, system-ui, -apple-system, BlinkMacSystemFont, Segoe UI, sans-serif" font-size="28" font-weight="700" fill="#eff6ff">Target net</text>
  <text x="956" y="268" font-family="JetBrains Mono, SFMono-Regular, Consolas, monospace" font-size="20" fill="#bfdbfe">10.10.14.0/24</text>
  <path d="M372 318H490" stroke="#60a5fa" stroke-width="10" stroke-linecap="round"/>
  <path d="M790 318H908" stroke="#60a5fa" stroke-width="10" stroke-linecap="round"/>
  <path d="M428 360C542 444 662 444 850 360" stroke="#93c5fd" stroke-width="6" stroke-dasharray="16 14" fill="none"/>
  <rect x="450" y="564" width="380" height="52" rx="26" fill="#2563eb"/>
  <text x="496" y="598" font-family="Inter, ui-sans-serif, system-ui, -apple-system, BlinkMacSystemFont, Segoe UI, sans-serif" font-size="20" font-weight="700" fill="#ffffff">authorized pivoting only</text>

</svg>
