<svg xmlns="http://www.w3.org/2000/svg" width="1280" height="720" viewBox="0 0 1280 720">
  <defs>
    <linearGradient id="bg" x1="0" x2="1" y1="0" y2="1">
      <stop offset="0" stop-color="#07111f"/>
      <stop offset="0.56" stop-color="#101827"/>
      <stop offset="1" stop-color="#172033"/>
    </linearGradient>
    <filter id="soft" x="-20%" y="-20%" width="140%" height="140%">
      <feGaussianBlur stdDeviation="22"/>
    </filter>
  </defs>
  <rect width="1280" height="720" fill="url(#bg)"/>
  <circle cx="1070" cy="110" r="260" fill="#ea580c" opacity="0.17" filter="url(#soft)"/>
  <circle cx="160" cy="650" r="220" fill="#ea580c" opacity="0.10" filter="url(#soft)"/>
  <path d="M0 84H1280M0 180H1280M0 276H1280M0 372H1280M0 468H1280M0 564H1280M160 0V720M320 0V720M480 0V720M640 0V720M800 0V720M960 0V720M1120 0V720" stroke="#253244" stroke-width="1" opacity="0.35"/>
  
  <text x="72" y="82" font-family="Inter, ui-sans-serif, system-ui, -apple-system, BlinkMacSystemFont, Segoe UI, sans-serif" font-size="25" font-weight="700" fill="#fed7aa">oxidized-joern CPG pipeline</text>
  <rect x="72" y="126" width="356" height="430" rx="18" fill="#0b1220" stroke="#ea580c" opacity="1"/>
  <text x="108" y="176" font-family="Inter, ui-sans-serif, system-ui, -apple-system, BlinkMacSystemFont, Segoe UI, sans-serif" font-size="22" font-weight="700" fill="#fff7ed">Frontend</text>
  <text x="108" y="232" font-family="JetBrains Mono, SFMono-Regular, Consolas, monospace" font-size="20" fill="#fed7aa">parser: rust module</text>
  <text x="108" y="280" font-family="JetBrains Mono, SFMono-Regular, Consolas, monospace" font-size="20" fill="#fed7aa">ir: ast -&gt; cpg</text>
  <text x="108" y="328" font-family="JetBrains Mono, SFMono-Regular, Consolas, monospace" font-size="20" fill="#fed7aa">edges: calls,dataflow</text>
  <text x="108" y="376" font-family="JetBrains Mono, SFMono-Regular, Consolas, monospace" font-size="20" fill="#fed7aa">export: graph layer</text>
  <circle cx="626" cy="214" r="48" fill="#ea580c"/>
  <circle cx="816" cy="304" r="48" fill="#ea580c"/>
  <circle cx="606" cy="444" r="48" fill="#ea580c"/>
  <circle cx="988" cy="444" r="48" fill="#ea580c"/>
  <path d="M670 238L772 282M776 326L650 422M858 330L946 420M642 444H940" stroke="#fdba74" stroke-width="8" stroke-linecap="round"/>
  <text x="580" y="220" font-family="Inter, ui-sans-serif, system-ui, -apple-system, BlinkMacSystemFont, Segoe UI, sans-serif" font-size="19" font-weight="700" fill="#fff">AST</text>
  <text x="778" y="310" font-family="Inter, ui-sans-serif, system-ui, -apple-system, BlinkMacSystemFont, Segoe UI, sans-serif" font-size="19" font-weight="700" fill="#fff">CPG</text>
  <text x="558" y="450" font-family="Inter, ui-sans-serif, system-ui, -apple-system, BlinkMacSystemFont, Segoe UI, sans-serif" font-size="19" font-weight="700" fill="#fff">flows</text>
  <text x="950" y="450" font-family="Inter, ui-sans-serif, system-ui, -apple-system, BlinkMacSystemFont, Segoe UI, sans-serif" font-size="19" font-weight="700" fill="#fff">query</text>
  <rect x="738" y="520" width="342" height="58" rx="18" fill="#fff7ed" stroke="#fed7aa" opacity="1"/>
  <text x="770" y="556" font-family="Inter, ui-sans-serif, system-ui, -apple-system, BlinkMacSystemFont, Segoe UI, sans-serif" font-size="20" font-weight="700" fill="#9a3412">security analysis substrate</text>

</svg>
